<svg xmlns="http://www.w3.org/2000/svg" width="30.675" height="31" viewBox="0 0 30.675 31"><g transform="translate(-2 -2)"><path d="M32.163,6.067H30.63V5.045a.511.511,0,0,0-.511-.511H28.585V3.516A.511.511,0,0,0,28.073,3L26.029,3h0a.511.511,0,0,0-.511.511V4.534H4.556A2.559,2.559,0,0,0,2,7.09V30.607a2.559,2.559,0,0,0,2.556,2.556H8.135a.511.511,0,0,0,.511-.511V31.118H32.163a.511.511,0,0,0,.511-.511V6.579A.511.511,0,0,0,32.163,6.067ZM27.562,7.6H26.54V6.579h1.022Zm0,1.022V19.871H26.54V8.624Zm-.026,12.27-.486,1.451-.484-1.454Zm.026-16.867v1.53H26.54V4.022ZM4.556,5.556H25.517V20.894a.52.52,0,0,0,.026.161l1.022,3.067a.511.511,0,0,0,.971,0l1.022-3.063a.511.511,0,0,0,.025-.161V5.556h1.022V28.051H4.556a2.53,2.53,0,0,0-1.534.525V7.09A1.534,1.534,0,0,1,4.556,5.556Zm27.1,24.54H4.045v1.022H7.624v1.022H4.556a1.534,1.534,0,1,1,0-3.067H30.118a.511.511,0,0,0,.511-.511V7.09h1.022Z" transform="translate(0 -0.489)"/><path d="M8.511,30.382h2.556V29.36H9.022V21.18h2.045V20.157H9.022V14.022h6.135v6.135H13.112V21.18h5.624v3.067h1.022V21.18H21.8V20.157H16.18V14.022h9.2v6.135H23.849V21.18h1.534v8.18H19.759V26.292H18.736V29.36H13.112v1.022H25.894a.511.511,0,0,0,.511-.511V13.511A.511.511,0,0,0,25.894,13H8.511A.511.511,0,0,0,8,13.511v16.36A.511.511,0,0,0,8.511,30.382Z" transform="translate(-2.933 -5.376)"/><rect width="13" height="2" transform="translate(17 31)"/><rect width="13" height="1" transform="translate(7 2)"/><rect width="1" height="2" transform="translate(15 31)"/></g></svg>