<svg xmlns="http://www.w3.org/2000/svg" width="25.169" height="26.903" viewBox="0 0 25.169 26.903"><path d="M172.738,394.293H161.7a.4.4,0,0,0,0,.794h11.037a.4.4,0,0,0,0-.794Zm0,0" transform="translate(-152.829 -373.575)"/><path d="M172.738,341.215H161.7a.4.4,0,0,0,0,.794h11.037a.4.4,0,0,0,0-.794Zm0,0" transform="translate(-152.829 -323.286)"/><path d="M161.3,288.5a.4.4,0,0,0,.4.4h7.023a.4.4,0,1,0,0-.794H161.7A.4.4,0,0,0,161.3,288.5Zm0,0" transform="translate(-152.829 -272.967)"/><path d="M24.1,5.209l-.716-.777V1.652A1.657,1.657,0,0,0,21.727,0H3.967A1.657,1.657,0,0,0,2.309,1.652V4.788H1.583A1.585,1.585,0,0,0,0,6.371v4.807a1.585,1.585,0,0,0,1.583,1.584h.726V23.839a1.657,1.657,0,0,0,1.657,1.652h.907a1.611,1.611,0,0,0,1.6,1.412H23.558a1.612,1.612,0,0,0,1.611-1.609V8.142A3.254,3.254,0,0,0,24.1,5.209Zm.258,2.116H21.384a.817.817,0,0,1-.817-.815l0-3.453c.522.039.662.193,1.119.7.076.085.159.177.251.277l.759.824.008.009.809.878A2.274,2.274,0,0,1,24.359,7.325ZM3.1,1.652A.862.862,0,0,1,3.967.794h17.76a.862.862,0,0,1,.863.858V3.57L22.524,3.5c-.09-.1-.171-.187-.244-.269a2.212,2.212,0,0,0-2.106-.977H6.471a1.611,1.611,0,0,0-1.61,1.609v.927H3.1ZM24.375,25.294a.817.817,0,0,1-.817.815H6.471a.816.816,0,0,1-.816-.815V19.54a.4.4,0,0,0-.794,0V24.7H3.967a.862.862,0,0,1-.863-.858V12.762H4.861v4.959a.4.4,0,0,0,.794,0V12.762H7.717a.4.4,0,0,0,0-.794H1.583a.79.79,0,0,1-.789-.79V6.371a.79.79,0,0,1,.789-.79H12.04a.791.791,0,0,1,.79.79v4.807a.791.791,0,0,1-.79.79h-2.5a.4.4,0,1,0,0,.794h2.5a1.586,1.586,0,0,0,1.585-1.584V6.371A1.586,1.586,0,0,0,12.04,4.788H5.656V3.861a.816.816,0,0,1,.816-.815h13.3l0,3.464a1.612,1.612,0,0,0,1.611,1.609h2.991V25.294Zm0,0"/><path d="M50.918,134.637h-.951a.4.4,0,0,0-.3.123.411.411,0,0,0-.123.3v2.812a.4.4,0,0,0,.12.3.406.406,0,0,0,.691-.285v-.815h.611a1.209,1.209,0,0,0,.891-.333,1.293,1.293,0,0,0-.02-1.759A1.278,1.278,0,0,0,50.918,134.637Zm.3,1.576a.466.466,0,0,1-.34.145h-.516v-1h.521a.45.45,0,0,1,.343.148.506.506,0,0,1,.138.358A.471.471,0,0,1,51.214,136.213Zm0,0" transform="translate(-46.943 -127.562)"/><path d="M110.967,135.682a1.565,1.565,0,0,0-.5-.623,1.905,1.905,0,0,0-1.151-.325h-.836a.393.393,0,0,0-.3.125.4.4,0,0,0-.12.285v2.787a.4.4,0,0,0,.115.3.445.445,0,0,0,.305.11h.9a1.688,1.688,0,0,0,1.171-.4,1.826,1.826,0,0,0,.586-1.416A2,2,0,0,0,110.967,135.682Zm-.919,1.629a.876.876,0,0,1-.691.3h-.48V135.47h.436a.951.951,0,0,1,.728.285,1.081,1.081,0,0,1,.268.771A1.145,1.145,0,0,1,110.049,137.311Zm0,0" transform="translate(-102.388 -127.655)"/><path d="M177,138.3a.388.388,0,0,0,.288-.12.394.394,0,0,0,.118-.285v-1.076h.771a.377.377,0,0,0,.275-.108.359.359,0,0,0,0-.52.381.381,0,0,0-.273-.108h-.771v-.706h.911a.345.345,0,0,0,.26-.11.358.358,0,0,0,.105-.255.363.363,0,0,0-.108-.268.351.351,0,0,0-.258-.108h-1.312a.394.394,0,0,0-.3.125.407.407,0,0,0-.12.29V137.9a.382.382,0,0,0,.125.285A.4.4,0,0,0,177,138.3Zm0,0" transform="translate(-167.311 -127.566)"/></svg>